<?xml version="1.0" encoding="utf-8"?>
<!-- Generator: Adobe Illustrator 20.1.0, SVG Export Plug-In . SVG Version: 6.00 Build 0)  -->
<svg version="1.1" id="Слой_1" xmlns="http://www.w3.org/2000/svg" xmlns:xlink="http://www.w3.org/1999/xlink" x="0px" y="0px"
	 viewBox="0 0 90 90" style="enable-background:new 0 0 90 90;" xml:space="preserve">
<style type="text/css">
	.st0{fill:#FFFFFF;}
</style>
<path class="st0" d="M88.5,81.9H62V69.3c0-0.8-0.6-1.4-1.4-1.4H29.8c-0.8,0-1.4,0.6-1.4,1.4v7H1.9c-0.8,0-1.4,0.6-1.4,1.4v12.6h2.8
	V79.1h26.5c0.8,0,1.4-0.6,1.4-1.4v-7h27.9v12.6c0,0.8,0.6,1.4,1.4,1.4h26.5v5.6h2.8v-7C89.9,82.5,89.3,81.9,88.5,81.9z"/>
<path class="st0" d="M47.1,73.9h-1.7l-3.7,3.1l0.6,0.9c0.1,0.1,0.1,0.1,0.2,0.2c0.1,0.1,0.2,0.1,0.3,0.1c0.1,0,0.1,0,0.2,0
	c0.1,0,0.1-0.1,0.2-0.1l1.7-1.5c0,0.3,0,0.6,0,0.9v7.1h-2.5v1.6h6.7v-1.6h-2.2V73.9z"/>
<path class="st0" d="M39.4,12.9c0.6,2.8,3,4.7,5.8,4.7c2.8,0,5.1-2,5.8-4.8c0-0.1,0.7-3.3,0.8-4.3c0.1-1.4,0.1-2-0.1-2.9
	c-0.4-2.7-3.2-4.7-6.5-4.7c-3.4,0-6.2,2-6.5,4.7c-0.1,1-0.1,1.5-0.1,3C38.7,9.5,39.4,12.8,39.4,12.9z M41.5,6
	c0.2-1.3,1.8-2.3,3.8-2.3c1.9,0,3.6,1,3.8,2.3c0.1,0.7,0.1,1.1,0,2.4c0,0.5-0.5,2.7-0.7,3.9c-0.4,1.5-1.6,2.6-3.1,2.6
	c-1.5,0-2.7-1.1-3.1-2.6c-0.3-1.3-0.7-3.4-0.7-3.9C41.4,7.1,41.4,6.7,41.5,6z"/>
<path class="st0" d="M35.4,26.6l0,10.3l-4.2,26.5c-0.1,0.4,0.1,0.8,0.3,1.1c0.3,0.3,0.7,0.5,1.1,0.5h5.6c0.6,0,1.2-0.4,1.4-1
	l5.6-21.3l5.6,21.3c0.2,0.6,0.7,1,1.4,1h5.6c0.4,0,0.8-0.2,1.1-0.5c0.3-0.3,0.4-0.7,0.3-1.1L55,37.2V26.6l17.7-16.4
	c0.4-0.4,0.6-1,0.3-1.5c-0.2-0.5-0.7-0.9-1.3-0.9h-5.6c-0.3,0-0.6,0.1-0.9,0.3c-5.8,4.7-16.4,12.3-20.1,12.3
	c-3.7,0-14.3-7.5-20.1-12.3c-0.2-0.2-0.6-0.3-0.9-0.3h-5.6c-0.6,0-1.1,0.3-1.3,0.9c-0.2,0.5-0.1,1.1,0.3,1.5L35.4,26.6z M23.8,10.6
	c2.8,2.3,15.9,12.6,21.5,12.6c5.6,0,18.7-10.3,21.5-12.6h1.5L52.6,25c-0.3,0.3-0.4,0.6-0.4,1l0,11.4l3.9,24.9h-2.9l-6-22.7
	c-0.2-0.6-0.7-1-1.4-1h-1.4c-0.6,0-1.2,0.4-1.4,1l-6,22.7h-2.9l4-25.1V26c0-0.4-0.2-0.8-0.4-1L22.2,10.6H23.8z"/>
</svg>
